# xmcd CD database file
#
# Track frame offsets:
#	150
#	15917
#	25355
#	37325
#	54257
#	66960
#	78495
#	91560
#	102270
#	113777
#	130467
#	143237
#	151805
#	163370
#
# Disc length: 2392 seconds
#
# Revision: 0
# Processed by: cddbd v1.5.1PL2 Copyright (c) Steve Scherf et al.
# Submitted via: CDex 1.51
#
DISCID=b409560e
DTITLE=New Wizard Oil Combination - Goin' Back...
DYEAR=1900
DGENRE=Jazz
TTITLE0=Ease On Down The Road
TTITLE1=I'm Gonna Sit Right Down An' Write Myself A Letter
TTITLE2=If I Love Again
TTITLE3=Mud, Mud, Glorious Mud
TTITLE4=Drive My Car
TTITLE5=Bein' Green
TTITLE6=Oh, The Americas
TTITLE7=I'm Goin' Back To Where I Come From
TTITLE8=Golden Lady
TTITLE9=The Mississippi Squirrel Revival
TTITLE10=Roller Derby Queen
TTITLE11=Indian Prayer
TTITLE12=Can He Love You Half As Much As I
TTITLE13=Ellington Blues Medley
EXTD=
EXTT0=
EXTT1=
EXTT2=
EXTT3=
EXTT4=
EXTT5=
EXTT6=
EXTT7=
EXTT8=
EXTT9=
EXTT10=
EXTT11=
EXTT12=
EXTT13=
PLAYORDER=
